<?xml version="1.0" encoding="utf-8"?>
<!-- Generator: Adobe Illustrator 23.0.2, SVG Export Plug-In . SVG Version: 6.00 Build 0)  -->
<svg version="1.1" id="Layer_1" xmlns="http://www.w3.org/2000/svg" xmlns:xlink="http://www.w3.org/1999/xlink" x="0px" y="0px"
	 viewBox="0 0 40 40" style="enable-background:new 0 0 40 40;" xml:space="preserve">
<style type="text/css">
	.st0{fill:#538D4E;}
	.st1{fill:#FAB900;}
</style>
<circle class="st0" cx="19.4" cy="18.6" r="31.1"/>
<g>
	<g>
		<path class="st1" d="M8.8,4.2c0.7-0.5,1.5-0.7,2.3-0.9c0.8-0.1,1.7-0.1,2.5,0.1c0.8,0.2,1.7,0.6,2.5,1.2c1,0.8,1.8,1.6,2.3,2.3
			c0.5,0.9,0.8,1.6,0.9,2.3s0.1,1.4-0.1,2s-0.5,1.1-0.8,1.5c-0.5,0.7-1,1.2-1.5,1.5c-0.5,0.4-1,0.5-1.5,0.6s-1,0.1-1.5,0.1
			s-1,0-1.4-0.1c-0.5,0-0.9,0.1-1.4,0.2s-0.9,0.3-1.2,0.8l-0.6,0.8l-3-2.2l0.7-1c0.6-0.6,1-1,1.5-1.4c0.5-0.3,1-0.5,1.5-0.5
			c0.5-0.1,1-0.1,1.4-0.2c0.5,0,0.9,0,1.3,0c0.4-0.1,0.8-0.1,1.1-0.3s0.7-0.4,1-0.8c0.5-0.6,0.7-1.2,0.6-1.8c-0.1-0.6-0.4-1.1-1-1.5
			c-0.4-0.3-0.8-0.5-1.2-0.5s-0.7,0-1.2,0.1c-0.3,0.1-0.7,0.3-1.1,0.6c-0.3,0.3-0.7,0.6-1,1L6.6,5.9C7.3,5.3,8,4.7,8.8,4.2z"/>
	</g>
	<circle class="st1" cx="5.6" cy="18.6" r="2"/>
</g>
<g>
	<g>
		<path class="st1" d="M25.8,11c0-0.5,0.1-0.9,0.2-1.4c0.2-0.4,0.4-0.8,0.8-1.2c0.3-0.3,0.7-0.6,1.3-0.9c0.7-0.3,1.3-0.4,1.7-0.5
			c0.5,0,1,0.1,1.4,0.2C31.4,7.5,31.8,7.8,32,8c0.2,0.3,0.4,0.5,0.5,0.8c0.2,0.5,0.3,0.8,0.3,1.1s0,0.6-0.1,0.9
			c-0.1,0.3-0.2,0.5-0.3,0.7S32.1,12,32,12.2c-0.1,0.2-0.2,0.5-0.3,0.7s-0.1,0.5,0.1,0.8l0.2,0.5L30.1,15l-0.3-0.6
			c-0.1-0.4-0.2-0.8-0.2-1.1s0-0.6,0.2-0.9c0.1-0.3,0.2-0.5,0.3-0.7c0.1-0.2,0.2-0.4,0.3-0.6c0.1-0.2,0.2-0.4,0.2-0.6s0-0.4-0.1-0.7
			c-0.2-0.4-0.4-0.7-0.7-0.8c-0.3-0.1-0.6-0.1-1,0.1c-0.3,0.1-0.4,0.2-0.6,0.4s-0.2,0.3-0.3,0.6c0,0.2,0,0.4,0,0.7s0.1,0.5,0.2,0.8
			l-2,0.9C25.9,12.1,25.8,11.6,25.8,11z"/>
	</g>
	<circle class="st1" cx="31.9" cy="16.5" r="1.1"/>
</g>
<g>
	<g>
		<path class="st1" d="M11.3,35.6c-0.3,0.4-0.7,0.6-1.1,0.8c-0.4,0.2-0.9,0.3-1.4,0.3s-1-0.1-1.5-0.3c-0.7-0.3-1.2-0.6-1.5-0.9
			c-0.4-0.4-0.7-0.7-0.8-1.1c-0.2-0.4-0.2-0.7-0.2-1.1c0-0.3,0.1-0.7,0.2-0.9c0.2-0.5,0.4-0.8,0.6-1c0.2-0.3,0.5-0.4,0.7-0.6
			s0.5-0.2,0.8-0.3c0.3-0.1,0.5-0.1,0.8-0.2c0.1,0,0.3-0.1,0.6-0.3c0.2-0.1,0.4-0.3,0.5-0.6l0.2-0.5l1.9,0.7l-0.2,0.6
			c-0.2,0.4-0.4,0.7-0.6,0.9c-0.2,0.2-0.5,0.4-0.7,0.5s-0.5,0.2-0.7,0.3C8.6,32,8.4,32,8.2,32.1s-0.4,0.2-0.5,0.3S7.4,32.7,7.3,33
			c-0.2,0.4-0.2,0.8-0.1,1c0.1,0.3,0.4,0.5,0.8,0.7c0.3,0.1,0.5,0.1,0.7,0.1s0.4-0.1,0.6-0.2c0.2-0.1,0.3-0.3,0.5-0.5
			c0.1-0.2,0.3-0.4,0.4-0.7l2.1,0.8C11.9,34.7,11.6,35.2,11.3,35.6z"/>
	</g>
	<circle class="st1" cx="10.9" cy="27.4" r="1.1"/>
</g>
<g>
	<g>
		<path class="st1" d="M31,30.2c0.2-0.2,0.5-0.3,0.7-0.5c0.3-0.1,0.6-0.2,0.9-0.1c0.3,0,0.6,0.1,0.9,0.2c0.4,0.2,0.7,0.4,0.9,0.6
			c0.2,0.3,0.4,0.5,0.5,0.7s0.1,0.5,0.1,0.7s-0.1,0.4-0.2,0.6c-0.1,0.3-0.3,0.5-0.4,0.6c-0.2,0.2-0.3,0.2-0.5,0.3s-0.3,0.1-0.5,0.1
			s-0.3,0.1-0.5,0.1s-0.3,0.1-0.5,0.2s-0.3,0.2-0.4,0.4v0.4L30.9,34l0.2-0.4c0.1-0.2,0.3-0.4,0.4-0.6c0.1-0.1,0.3-0.2,0.5-0.3
			s0.3-0.1,0.5-0.2c0.2,0,0.3-0.1,0.4-0.1s0.3-0.1,0.3-0.2c0.1-0.1,0.2-0.2,0.3-0.3c0.1-0.2,0.1-0.5,0.1-0.6
			c-0.1-0.2-0.2-0.3-0.4-0.4s-0.3-0.1-0.4-0.1c-0.2,0-0.2,0-0.4,0.1c-0.1,0.1-0.2,0.2-0.3,0.3c-0.1,0.1-0.2,0.3-0.3,0.4L30.4,31
			C30.6,30.7,30.8,30.5,31,30.2z"/>
	</g>
	<circle class="st1" cx="30.9" cy="35.3" r="0.7"/>
</g>
<g>
	<g>
		<path class="st1" d="M28.9,25.9c0,0.7-0.1,1.3-0.3,1.9c-0.2,0.6-0.6,1.2-1.1,1.7s-1.1,0.9-1.8,1.2c-0.9,0.4-1.8,0.6-2.4,0.6
			c-0.8,0-1.4-0.1-1.9-0.3c-0.5-0.2-1-0.5-1.3-0.9s-0.6-0.8-0.7-1.1c-0.3-0.6-0.4-1.2-0.4-1.6c0-0.5,0-0.9,0.1-1.3s0.3-0.7,0.5-1.1
			s0.4-0.7,0.6-0.9c0.2-0.3,0.3-0.6,0.4-1s0.1-0.7-0.1-1.2l-0.3-0.7l2.7-1.2l0.4,0.9c0.2,0.6,0.3,1.1,0.3,1.6c0,0.4,0,0.9-0.2,1.2
			c-0.1,0.4-0.3,0.7-0.4,1c-0.2,0.3-0.3,0.6-0.5,0.9c-0.1,0.3-0.2,0.6-0.2,0.9c0,0.2,0,0.6,0.2,1c0.3,0.6,0.6,0.9,1,1.1
			s0.9,0.1,1.4-0.1c0.4-0.2,0.6-0.4,0.8-0.6c0.2-0.3,0.3-0.5,0.4-0.9c0-0.3,0.1-0.6,0-0.9S26,25.4,25.8,25l2.9-1.3
			C28.7,24.5,28.8,25.2,28.9,25.9z"/>
	</g>
	<circle class="st1" cx="20.3" cy="18.2" r="1.6"/>
</g>
</svg>
