<?xml version="1.0" encoding="utf-8"?>
<!-- Generator: Adobe Illustrator 25.4.1, SVG Export Plug-In . SVG Version: 6.00 Build 0)  -->
<svg version="1.1" id="Layer_1" xmlns="http://www.w3.org/2000/svg" xmlns:xlink="http://www.w3.org/1999/xlink" x="0px" y="0px"
	 viewBox="0 0 180.84 60" style="enable-background:new 0 0 180.84 60;" xml:space="preserve">
<style type="text/css">
	.st0{fill:#FFFFFF;}
</style>
<path class="st0" d="M10.08,33.44c0,0-4.18-2.07-4.18-6.7c0-3.64,2.65-7.19,9.8-7.19c6.34,0,9.62,3.28,10.7,4.99l-4.09,3.96
	c0,0,5.84,2.52,5.84,8.05c0,5.12-5.26,7.73-10.97,7.73c-8.23,0-10.7-7.1-10.7-7.1L10.08,33.44z"/>
<path class="st0" d="M39.52,20.4c6.92,0,11.33,4.59,11.33,11.87c0,4.5-0.9,11.19-10.61,11.19s-11.19-6.83-11.19-11.42
	C29.05,26.74,32.6,20.4,39.52,20.4z M40.15,34.02c1.26,0,2.34-1.03,2.34-2.29c0-1.26-1.08-2.34-2.34-2.34s-2.29,1.08-2.29,2.34
	C37.86,32.99,38.89,34.02,40.15,34.02z"/>
<path class="st0" d="M53.05,20.04c0,0,4.23-0.58,7.87-0.45c7.37,0,15.19,5.53,14.16,23.51h-5.26l-2.2-4.18l-2.47,4.05l-12.27-0.05
	L53.05,20.04z"/>
<path class="st0" d="M87.88,41.76c-5.66,0.76-11.78-3.1-11.78-10.52c0-8.32,7.51-10.61,14.11-10.61l1.98,3.01l1.75-2.88h3.6
	c0,0,1.44,12,0.67,17.26c-1.75,11.96-14.74,14.65-17.98,14.65c-0.09,0-1.39-3.69-1.39-3.69L87.88,41.76z M91.7,32.99l0.09-5.8
	c0,0-3.42,0.04-3.42,2.61C88.38,33.22,91.7,32.99,91.7,32.99z"/>
<path class="st0" d="M100.47,12.67l12.05-0.04c4.99,0,7.64,3.15,7.64,7.82c0,3.06-2.07,7.06-6.88,7.06v0.72
	c4.86,0,7.78,3.19,7.78,7.37c0,4.5-3.01,8.27-8.54,8.27h-12.05V12.67z M111.8,22.07c0-2.65-3.06-2.11-3.06-2.11l-0.09,4.09
	C108.65,24.05,111.8,24.41,111.8,22.07z M112.38,33.84c0-2.97-3.73-2.29-3.73-2.29v4.4C108.65,35.96,112.38,36.36,112.38,33.84z"/>
<path class="st0" d="M138,20.27h9.35l0.09,3.37l5.44-3.01c3.1,1.98,2.92,11.1-4.31,11.69l0.27,10.74l-11.28,0.18L138,20.27z"/>
<path class="st0" d="M156.38,11.19l9.4-0.13l0.36,9.8c0,0,9.84,0.63,9.84,10.74c0,10.97-11.78,11.37-19.01,11.37L156.38,11.19z
	 M169.55,29.66c0-2.83-3.24-3.06-3.24-3.06v5.89C166.32,32.5,169.55,32.54,169.55,29.66z"/>
<path class="st0" d="M129.95,25.61l-0.51-2.06c3.15-1.34,4.86-4.32,4.86-7.17c0-0.12-0.11-0.99-0.11-0.99l1.48-1.12l-1.92,0.09
	c0,0-0.62-1.07-2.24-1.07c-1.53,0-2.77,1.24-2.77,2.77c0,0.22,0.02,0.43,0.07,0.63c-5.39,2.49-6.15,7.41-6.36,7.38
	c1.75,0.26,2.49,0.29,3.96,0.19c0.33-0.02,0.65-0.06,0.96-0.11l-0.16,1.57l-4.23,0.17v16.86h11.87c0,0-0.67-17.31-0.81-17.31
	L129.95,25.61z M127.96,24.02c0.33-0.07,0.64-0.16,0.94-0.27l0.47,1.88l-1.58,0.06L127.96,24.02z"/>
<path class="st0" d="M137.91,12.17v-2.5l-1.62,0.94v2.15c-0.23,0.07-0.39,0.27-0.39,0.52c0,0.31,0.25,0.56,0.56,0.56
	s0.56-0.25,0.56-0.56c0-0.24-0.15-0.44-0.36-0.52V10.8l0.9-0.54v2.05c-0.12,0.1-0.2,0.25-0.2,0.42c0,0.31,0.25,0.56,0.56,0.56
	s0.56-0.25,0.56-0.56S138.22,12.17,137.91,12.17z"/>
<path class="st0" d="M140.26,9.72V7.78L139,8.51v1.67c-0.17,0.06-0.3,0.21-0.3,0.41c0,0.24,0.19,0.43,0.43,0.43s0.43-0.19,0.43-0.43
	c0-0.18-0.12-0.34-0.28-0.4V8.65l0.7-0.42v1.59c-0.09,0.08-0.15,0.19-0.15,0.32c0,0.24,0.19,0.43,0.43,0.43
	c0.24,0,0.43-0.19,0.43-0.43S140.5,9.72,140.26,9.72z"/>
<path class="st0" d="M135.13,9.94v-1.6l-1.04,0.6v1.38c-0.14,0.05-0.25,0.18-0.25,0.34c0,0.2,0.16,0.36,0.36,0.36
	s0.36-0.16,0.36-0.36c0-0.15-0.1-0.28-0.23-0.33V9.06l0.58-0.35v1.31c-0.08,0.07-0.13,0.16-0.13,0.27c0,0.2,0.16,0.36,0.36,0.36
	s0.36-0.16,0.36-0.36S135.33,9.94,135.13,9.94z"/>
</svg>
